# AST/ASF file generated using VICON BodyLanguage
# -----------------------------------------------
:version 1.10
:name VICON
:units
  mass 1.0
  length 0.45
  angle deg
:documentation
   .ast/.asf automatically generated from VICON data using
   VICON BodyBuilder and BodyLanguage model FoxedUp or BRILLIANT.MOD
:root
   order TX TY TZ RX RY RZ
   axis XYZ
   position 0 0 0  
   orientation 0 0 0 
:bonedata
  begin
     id 1 
     name lhipjoint
     direction 0.567149 -0.783011 0.255413 
     length 2.28399 
     axis 0 0 0  XYZ
  end
  begin
     id 2 
     name lfemur
     direction 0.34202 -0.939693 0  
     length 7.34031  
     axis 0 0 20  XYZ
    dof rx ry rz
    limits (-160.0 20.0)
           (-70.0 70.0)
           (-60.0 70.0)
  end
  begin
     id 3 
     name ltibia
     direction 0.34202 -0.939693 0   
     length 6.9833   
     axis 0 0 20   XYZ
    dof rx
    limits (-10.0 170.0)
  end
  begin
     id 4 
     name lfoot
     direction 0.136498 -0.375025 0.91691   
     length 2.33665   
     axis -90 7.62852e-016 20   XYZ
    dof rx rz
    limits (-45.0 90.0)
           (-70.0 20.0)
  end
  begin
     id 5 
     name ltoes
     direction 1.5367e-011 -4.21617e-011 1   
     length 1.15039   
     axis -90 7.62852e-016 20   XYZ
    dof rx
    limits (-90.0 20.0)
  end
  begin
     id 6 
     name rhipjoint
     direction -0.602854 -0.758518 0.247423   
     length 2.35775  
     axis 0 0 0  XYZ 
  end
  begin
     id 7 
     name rfemur
     direction -0.34202 -0.939693 0   
     length 7.43932   
     axis 0 0 -20   XYZ
    dof rx ry rz
    limits (-160.0 20.0)
           (-70.0 70.0)
           (-70.0 60.0)
  end
  begin
     id 8 
     name rtibia
     direction -0.34202 -0.939693 0   
     length 7.11893   
     axis 0 0 -20   XYZ
    dof rx
    limits (-10.0 170.0)
 end
 begin
     id 9 
     name rfoot
     direction -0.131771 -0.362037 0.922803   
     length 2.53019  
     axis -90 -7.62852e-016 -20   XYZ
    dof rx rz
    limits (-45.0 90.0)
           (-20.0 70.0)
  end
  begin
     id 10 
     name rtoes
     direction -1.53733e-011 -4.21932e-011 1   
     length 1.24596   
     axis -90 -7.62852e-016 -20   XYZ
    dof rx
    limits (-90.0 20.0)
  end
  begin
     id 11 
     name lowerback
     direction 0.0235427 0.999023 -0.0374125   
     length 2.21768   
     axis 0 0 0   XYZ
    dof rx ry rz
    limits (-20.0 45.0)
           (-30.0 30.0)
           (-30.0 30.0)
  end
  begin
     id 12 
     name upperback
     direction 0.0302156 0.996818 -0.073759   
     length 2.20352   
     axis 0 0 0   XYZ
    dof rx ry rz
    limits (-20.0 45.0)
           (-30.0 30.0)
           (-30.0 30.0)
  end
  begin
     id 13 
     name thorax
     direction 0.0187169 0.998235 -0.0563532   
     length 2.22103   
     axis 0 0 0   XYZ
    dof rx ry rz
    limits (-20.0 45.0)
           (-30.0 30.0)
           (-30.0 30.0)
  end
  begin
     id 14 
     name lowerneck
     direction -0.119528 0.987423 0.103481   
     length 1.72948   
     axis 0 0 0   XYZ
    dof rx ry rz
    limits (-20.0 45.0)
           (-30.0 30.0)
           (-30.0 30.0)
  end
  begin
     id 15 
     name upperneck
     direction 0.248049 0.963095 -0.104496   
     length 1.74979   
     axis 0 0 0   XYZ
    dof rx ry rz
    limits (-20.0 45.0)
           (-30.0 30.0)
           (-30.0 30.0)
  end
  begin
     id 16
     name head
     direction 0.0903589 0.994284 -0.056876  
     length 1.78268  
     axis 0 0 0   XYZ
    dof rx ry rz
    limits (-20.0 45.0)
           (-30.0 30.0)
           (-30.0 30.0)
  end
  begin
     id 17 
     name lclavicle
     direction 0.946008 0.242039 -0.215608  
     length 3.80783  
     axis 0 0 0   XYZ
    dof ry rz
    limits (-20.0 10.0)
           (0.0 20.0)
  end
  begin
     id 18 
     name lhumerus
     direction 1 -4.48991e-011 -2.25695e-027   
     length 4.83125   
     axis 180 -30 -90   XYZ
    dof rx ry rz
    limits (-60.0 90.0)
           (-90.0 90.0)
           (-90.0 90.0)
  end
  begin
     id 19
     name lradius
     direction 0.999991 0.00366712 -0.00211721   
     length 3.00391   
     axis 180 -30 -90   XYZ
    dof rx
    limits (-10.0 170.0)
  end
  begin
     id 20
     name lwrist
     direction 0.999991 0.00393016 -0.00141978   
     length 1.50195   
     axis -1.00488e-014 90 90   XYZ
    dof ry
    limits (-180.0 0.0)
 end
  begin
     id 21 
     name lhand
     direction 1 -4.49123e-011 2.72098e-026   
     length 1.2717   
     axis -1.73687e-014 90 90   XYZ
    dof rx rz
    limits (-90.0 90.0)
           (-45.0 45.0)
  end
  begin
     id 22 
     name lfingers
     direction 1 -4.48678e-011 5.4479e-026   
     length 1.02528   
     axis -3.47372e-014 90 90   XYZ
    dof rx
    limits (0.0 90.0)
  end
  begin
     id 23
     name lthumb
     direction 0.707107 -6.34851e-011 0.707107   
     length 1.4721   
     axis -90 45 -1.62303e-014   XYZ
    dof rx rz
    limits (-45.0 45.0)
           (-45.0 45.0)
  end
  begin
     id 24 
     name rclavicle
     direction -0.981723 0.189447 -0.0181673   
     length 3.74989  
     axis 0 0 0   XYZ 
    dof ry rz
    limits (-10.0 20.0)
           (-20.0 0.0)
  end
  begin
     id 25 
     name rhumerus
     direction -1 -4.48985e-011 2.38206e-027  
     length 4.61118   
     axis 180 30 90   XYZ
    dof rx ry rz
    limits (-90.0 60.0)
           (-90.0 90.0)
           (-90.0 90.0)
  end
  begin
     id 26 
     name rradius
     direction -1 -4.48977e-011 7.41019e-027   
     length 2.91491   
     axis 180 30 90   XYZ
    dof rx
    limits (-10.0 170.0)
  end
  begin
     id 27 
     name rwrist
     direction -1 -4.48549e-011 1.3624e-026   
     length 1.45745   
     axis -1.00488e-014 -90 -90   XYZ
    dof ry
    limits (-180.0 0.0)
  end
  begin
     id 28
     name rhand
     direction -1 -4.49107e-011 2.72109e-026   
     length 1.30769   
     axis -1.73687e-014 -90 -90   XYZ
    dof rx rz
    limits (-90.0 90.0)
           (-45.0 45.0)
  end
  begin
     id 29
     name rfingers
     direction -1 -4.48919e-011 5.44468e-026   
     length 1.05429   
     axis -3.47372e-014 -90 -90   XYZ
    dof rx
    limits (0.0 90.0)
  end
  begin
     id 30
     name rthumb
     direction -0.707107 -6.35315e-011 0.707107   
     length 1.51376   
     axis -90 -45 1.62303e-014   XYZ
    dof rx rz
    limits (-45.0 45.0)
           (-45.0 45.0)
  end
:hierarchy
  begin
    root lhipjoint rhipjoint lowerback
    lhipjoint lfemur
    lfemur ltibia
    ltibia lfoot
    lfoot ltoes
    rhipjoint rfemur
    rfemur rtibia
    rtibia rfoot
    rfoot rtoes
    lowerback upperback
    upperback thorax
    thorax lowerneck lclavicle rclavicle
    lowerneck upperneck
    upperneck head
    lclavicle lhumerus
    lhumerus lradius
    lradius lwrist
    lwrist lhand lthumb
    lhand lfingers
    rclavicle rhumerus
    rhumerus rradius
    rradius rwrist
    rwrist rhand rthumb
    rhand rfingers
  end

#!OML:ASF X:\für Bonn\!DataBase\2005_08_11_Bastian_Final\c3d\Bastian.ASF
:FULLY-SPECIFIED
:DEGREES
17
root 3.67233 18.5124 4.10831 1078.91 2.68597 -3.00893
lowerback -6.15293 -2.02995 -1.82158
upperback 2.62369 -2.55831 0.0420676
thorax 6.27093 -1.3355 0.770033
lowerneck -12.6203 -3.23017 -7.0268
upperneck 3.72805 -3.84682 8.91746
head 3.47201 -1.59637 3.61615
rclavicle 2.26366e-014 7.95139e-015
rhumerus -53.1795 8.25527 -92.8297
rradius 48.5546
rwrist 3.4932
rhand -23.2911 14.8352
rfingers 7.12502
rthumb 3.16199 -15.1211
lclavicle 2.26366e-014 7.95139e-015
lhumerus -37.9577 -6.14691 83.4107
lradius 61.9412
lwrist -160.717
lhand -21.5601 4.8634
lfingers 7.12502
lthumb 4.8335 34.7883
rfemur -3.11802 -1.41059 27.6052
rtibia 41.1911
rfoot 3.84436 5.34829
rtoes -15.3502
lfemur -1.55531 -4.83842 -15.9021
ltibia 40.9782
lfoot 8.00354 -8.22182
ltoes -36.6356
18
root 3.65723 18.7985 4.37192 1079.34 2.67174 -2.9413
lowerback -7.24075 -2.12187 -1.9478
upperback 2.35477 -2.64877 0.0602234
thorax 6.6203 -1.38373 0.813894
lowerneck -12.4283 -3.17283 -7.31077
upperneck 4.56408 -3.78277 8.87712
head 3.69295 -1.56928 3.65596
rclavicle -1.86361e-016 -1.47101e-014
rhumerus -53.3651 8.24002 -92.8385
rradius 49.2156
rwrist 3.33436
rhand -23.1367 14.9631
rfingers 7.12502
rthumb 3.31112 -14.9909
lclavicle -1.86361e-016 -1.47101e-014
lhumerus -38.3659 -6.80486 83.6439
lradius 62.9487
lwrist -159.929
lhand -21.3 4.55938
lfingers 7.12502
lthumb 5.08464 34.4784
rfemur -2.88664 1.245 28.3187
rtibia 40.4871
rfoot 8.20793 3.10764
rtoes -17.4484
lfemur -2.11577 -5.70079 -16.3063
ltibia 41.2039
lfoot 11.6624 -7.16434
ltoes -40.0115
19
root 3.64405 19.0715 4.62527 1079.73 2.63208 -2.96418
lowerback -8.08375 -2.18473 -1.93498
upperback 2.11727 -2.71794 0.0805429
thorax 6.85459 -1.41562 0.791912
lowerneck -12.4737 -3.14276 -7.52106
upperneck 5.42524 -3.75267 8.83181
head 3.96177 -1.55371 3.6788
rclavicle -6.03498e-015 -2.78299e-015
rhumerus -53.5395 8.16495 -92.8303
rradius 49.8457
rwrist 3.13854
rhand -23.0588 15.1872
rfingers 7.12502
rthumb 3.38634 -14.7656
lclavicle -6.03498e-015 -2.78299e-015
lhumerus -38.6039 -7.46612 83.8302
lradius 63.8594
lwrist -159.282
lhand -21.1234 4.16508
lfingers 7.12502
lthumb 5.25521 34.0799
rfemur -2.91549 3.30396 29.0194
rtibia 40.3233
rfoot 11.6176 1.21394
rtoes -20.324
lfemur -3.05867 -6.30595 -16.5632
ltibia 42.0978
lfoot 14.3595 -6.31155
ltoes -42.6751
20
root 3.63144 19.3322 4.8713 1080.04 2.59866 -3.07812
lowerback -8.61191 -2.22033 -1.79555
upperback 1.89395 -2.77161 0.0986117
thorax 6.91561 -1.43438 0.7099
lowerneck -12.6363 -3.12227 -7.63992
upperneck 6.2858 -3.73935 8.766
head 4.2498 -1.5441 3.67905
rclavicle -7.67029e-015 -4.77083e-015
rhumerus -53.9051 8.06778 -92.856
rradius 50.7041
rwrist 2.74902
rhand -23.0165 15.399
rfingers 7.12502
rthumb 3.42717 -14.5532
lclavicle -7.67029e-015 -4.77083e-015
lhumerus -38.8605 -8.16458 83.9748
lradius 64.8151
lwrist -158.834
lhand -20.8922 3.79156
lfingers 7.12502
lthumb 5.47846 33.7007
rfemur -3.12091 4.9948 29.7794
rtibia 40.6057
rfoot 14.1352 -0.391517
rtoes -22.8931
lfemur -4.12521 -6.57054 -16.6535
ltibia 43.4956
lfoot 16.3642 -5.65046
ltoes -44.3914
21
root 3.61878 19.5881 5.11293 1080.21 2.56916 -3.34616
lowerback -8.84814 -2.24477 -1.50772
upperback 1.74413 -2.83767 0.173276
thorax 6.88269 -1.45531 0.611539
lowerneck -12.8984 -3.11711 -7.76871
upperneck 7.03004 -3.72908 8.69472
head 4.52007 -1.53613 3.67883
rclavicle 1.28434e-014 1.23246e-014
rhumerus -54.3555 7.94514 -92.8298
rradius 51.6751
rwrist 2.33565
rhand -22.9381 15.5467
rfingers 7.12502
rthumb 3.5029 -14.4043
lclavicle 1.28434e-014 1.23246e-014
lhumerus -39.2312 -8.71307 84.1002
lradius 66.0025
lwrist -158.65
lhand -20.759 3.47785
lfingers 7.12502
lthumb 5.60704 33.3837
rfemur -3.38072 5.83668 30.5236
rtibia 41.1029
rfoot 16.2402 -1.13078
rtoes -24.7474
lfemur -5.20122 -6.56958 -16.5174
ltibia 45.2035
lfoot 17.936 -5.10642
ltoes -44.9993
22
root 3.60818 19.8315 5.34916 1080.28 2.53326 -3.79827
lowerback -8.87468 -2.24507 -1.01591
upperback 1.66014 -2.90188 0.299097
thorax 6.79144 -1.4694 0.459499
lowerneck -13.1721 -3.12533 -7.94085
upperneck 7.63792 -3.7255 8.68801
head 4.75428 -1.53033 3.70574
rclavicle -4.77611e-014 -1.19271e-014
rhumerus -54.7059 7.88084 -92.8081
rradius 52.4529
rwrist 1.78995
rhand -22.9355 15.6915
rfingers 7.12502
rthumb 3.5054 -14.2594
lclavicle -4.77611e-014 -1.19271e-014
lhumerus -39.5227 -9.15956 84.2076
lradius 67.1258
lwrist -158.625
lhand -20.6715 3.32896
lfingers 7.12502
lthumb 5.69147 33.2325
rfemur -3.70538 5.49366 31.1378
rtibia 41.7449
rfoot 17.8045 -0.905421
rtoes -26.039
lfemur -6.27563 -6.26665 -16.1105
ltibia 47.1382
lfoot 19.0933 -4.65546
ltoes -44.3023
23
root 3.59694 20.0701 5.58607 1080.19 2.49336 -4.31445
lowerback -8.69873 -2.23963 -0.444157
upperback 1.6887 -2.96876 0.429159
thorax 6.69951 -1.48307 0.272369
lowerneck -13.47 -3.12715 -8.04422
upperneck 8.05961 -3.70946 8.66133
head 4.93317 -1.51855 3.71568
rclavicle 4.41675e-015 -3.97569e-015
rhumerus -54.8757 7.93616 -92.8476
rradius 52.9591
rwrist 1.16213
rhand -23.0936 15.81
rfingers 7.12502
rthumb 3.35267 -14.1434
lclavicle 4.41675e-015 -3.97569e-015
lhumerus -39.6781 -9.5308 84.2637
lradius 68.0786
lwrist -158.756
lhand -20.596 3.4286
lfingers 7.12502
lthumb 5.76444 33.3302
rfemur -3.8569 4.80274 31.7481
rtibia 42.4526
rfoot 18.8054 -0.700752
rtoes -26.2331
lfemur -7.19344 -5.78447 -15.595
ltibia 49.1839
lfoot 19.7758 -4.26731
ltoes -42.889
24
root 3.58698 20.2843 5.81131 1079.95 2.39805 -4.83002
lowerback -8.27577 -2.20441 0.13446
upperback 1.80298 -2.99336 0.548889
thorax 6.55544 -1.47659 0.0851496
lowerneck -13.7759 -3.1602 -8.12432
upperneck 8.33457 -3.73106 8.64481
head 5.07159 -1.52457 3.72121
rclavicle 5.57855e-014 -1.15295e-014
rhumerus -55.0089 7.95799 -92.8854
rradius 53.4806
rwrist 0.512661
rhand -23.2096 15.8221
rfingers 7.12502
rthumb 3.24068 -14.133
lclavicle 5.57855e-014 -1.15295e-014
lhumerus -39.7327 -9.93113 84.3033
lradius 68.8372
lwrist -158.838
lhand -20.5245 3.69466
lfingers 7.12502
lthumb 5.83341 33.5944
rfemur -3.88562 3.87861 32.268
rtibia 43.2449
rfoot 19.3358 -0.575396
rtoes -25.4488
lfemur -7.94356 -5.21311 -15.0727
ltibia 51.2929
lfoot 20.0149 -3.80806
ltoes -40.8546
25
root 3.57774 20.4693 6.01856 1079.49 2.26733 -5.2902
lowerback -7.45954 -2.15509 0.686357
upperback 2.00564 -2.9846 0.619377
thorax 6.27848 -1.45547 -0.119506
lowerneck -13.9453 -3.1845 -8.19162
upperneck 8.29532 -3.74361 8.70321
head 5.09103 -1.52534 3.74863
rclavicle 1.21833e-015 1.47101e-014
rhumerus -55.1365 8.01922 -92.9704
rradius 54.0002
rwrist -0.14784
rhand -23.3685 15.7348
rfingers 7.12502
rthumb 3.08719 -14.2226
lclavicle 1.21833e-015 1.47101e-014
lhumerus -39.6999 -10.3427 84.2752
lradius 69.4505
lwrist -158.904
lhand -20.5023 4.01474
lfingers 7.12502
lthumb 5.85488 33.9138
rfemur -3.71316 2.86354 32.6505
rtibia 44.0876
rfoot 19.5625 -0.816497
rtoes -24.3199
lfemur -8.45518 -4.61985 -14.5998
ltibia 53.3483
lfoot 19.9895 -3.29333
ltoes -37.9082
26
root 3.56772 20.6472 6.21819 1078.79 2.08376 -5.57223
lowerback -6.26797 -2.1162 1.0206
upperback 2.3017 -2.95521 0.67995
thorax 5.89601 -1.43392 -0.197204
lowerneck -14.0457 -3.22317 -8.35455
upperneck 8.05283 -3.75397 8.79393
head 5.03842 -1.52838 3.80167
rclavicle -1.08772e-014 1.11319e-014
rhumerus -55.2135 8.20319 -93.0043
rradius 54.5203
rwrist -0.875657
rhand -23.4855 15.5104
rfingers 7.12502
rthumb 2.97425 -14.4486
lclavicle -1.08772e-014 1.11319e-014
lhumerus -39.5955 -10.5429 84.27
lradius 69.9044
lwrist -159.015
lhand -20.6174 4.21459
lfingers 7.12502
lthumb 5.74374 34.1167
rfemur -3.30923 1.8114 32.765
rtibia 44.9984
rfoot 19.6248 -1.35618
rtoes -22.9022
lfemur -8.67683 -3.98589 -14.3222
ltibia 55.2546
lfoot 19.9305 -2.95769
ltoes -35.0951
27
root 3.55729 20.8316 6.41894 1077.96 1.85112 -5.67427
lowerback -4.86378 -2.06563 1.21819
upperback 2.65146 -2.88358 0.657917
thorax 5.45098 -1.39563 -0.273466
lowerneck -14.0052 -3.24865 -8.38232
upperneck 7.59347 -3.76351 8.82893
head 4.89194 -1.53437 3.81457
rclavicle -2.13694e-015 -3.18055e-015
rhumerus -55.1841 8.4229 -93.0947
rradius 54.8475
rwrist -1.5042
rhand -23.6778 15.3511
rfingers 7.12502
rthumb 2.78854 -14.6104
lclavicle -2.13694e-015 -3.18055e-015
lhumerus -39.4458 -10.7724 84.2162
lradius 70.2556
lwrist -159.041
lhand -20.7648 4.28941
lfingers 7.12502
lthumb 5.60141 34.1954
rfemur -2.83102 0.756466 32.6084
rtibia 45.9886
rfoot 19.4294 -2.5584
rtoes -19.9855
lfemur -8.67157 -3.35553 -14.2468
ltibia 56.8907
lfoot 19.9218 -2.79345
ltoes -33.0826
28
root 3.54524 21.0101 6.61933 1077.1 1.58026 -5.53681
lowerback -3.36096 -1.99694 1.17513
upperback 3.02946 -2.76266 0.552655
thorax 4.98726 -1.33988 -0.296497
lowerneck -13.9694 -3.28923 -8.38757
upperneck 7.09142 -3.80045 8.91459
head 4.7367 -1.55012 3.83753
rclavicle 1.45361e-014 1.03368e-014
rhumerus -55.1731 8.53472 -93.1719
rradius 55.1558
rwrist -1.98296
rhand -23.8116 15.2227
rfingers 7.12502
rthumb 2.65929 -14.7404
lclavicle 1.45361e-014 1.03368e-014
lhumerus -39.2663 -10.9421 84.1136
lradius 70.5492
lwrist -159.058
lhand -21.006 4.03892
lfingers 7.12502
lthumb 5.36859 33.9509
rfemur -2.3975 -0.531022 32.0278
rtibia 47.0598
rfoot 18.9065 -3.7026
rtoes -16.71
lfemur -8.48867 -2.7215 -14.4041
ltibia 58.1608
lfoot 19.9056 -2.87296
ltoes -32.89
